# Blender v2.83.0 OBJ File: ''
# www.blender.org
mtllib sword3.mtl
o Cube
v 1.000000 -1.000000 -1.000000
v 1.000000 -1.000000 1.000000
v 1.000000 1.000000 -1.000000
v 1.000000 1.000000 1.000000
v -1.000000 -1.000000 -1.000000
v -1.000000 -1.000000 1.000000
v -1.000000 1.000000 -1.000000
v -1.000000 1.000000 1.000000
v 2.461862 -0.490881 -1.000000
v 2.461862 -0.490881 -0.084430
v 2.461862 0.490882 -1.000000
v 2.461862 0.490882 -0.084430
v -2.698845 -0.593022 1.000000
v -2.698845 0.593021 1.000000
v -2.698845 0.593021 0.402326
v -2.698845 -0.593022 0.402326
v -1.000000 -0.246366 1.573262
v -1.000000 0.246365 1.573262
v 1.000000 -0.246366 1.573262
v 1.000000 0.246365 1.573262
v -0.353924 -0.074838 14.111550
v -0.353924 0.074824 14.111550
v 0.353924 -0.074838 14.111550
v 0.353924 0.074824 14.111550
v 0.321670 0.370182 -1.807084
v -0.321670 0.370182 -1.807084
v 0.321670 -0.370181 -1.807084
v -0.321670 -0.370181 -1.807084
v 0.321670 0.370184 -5.008111
v -0.321670 0.370184 -5.008111
v 0.321670 -0.370179 -5.008111
v -0.321670 -0.370179 -5.008111
vt 0.875000 0.750000
vt 0.875000 0.500000
vt 0.875000 0.500000
vt 0.625000 0.750000
vt 0.375000 1.000000
vt 0.375000 0.750000
vt 0.125000 0.750000
vt 0.125000 0.500000
vt 0.125000 0.500000
vt 0.125000 0.750000
vt 0.375000 0.750000
vt 0.625000 0.750000
vt 0.625000 0.250000
vt 0.375000 0.500000
vt 0.375000 0.250000
vt 0.625000 0.500000
vt 0.375000 0.500000
vt 0.625000 0.500000
vt 0.625000 0.000000
vt 0.375000 0.250000
vt 0.375000 0.000000
vt 0.875000 0.750000
vt 0.625000 0.250000
vt 0.625000 1.000000
vt 0.375000 1.000000
vt 0.375000 0.750000
vt 0.375000 0.500000
vt 0.375000 0.500000
vt 0.375000 0.250000
vt 0.125000 0.750000
vt 0.125000 0.500000
vt 0.375000 0.250000
vt 0.375000 1.000000
vt 0.375000 0.750000
vt 0.125000 0.500000
vt 0.875000 0.750000
vt 0.875000 0.500000
vt 0.625000 0.750000
vt 0.625000 0.500000
vt 0.625000 1.000000
vt 0.625000 1.000000
vt 0.625000 0.750000
vt 0.625000 0.500000
vt 0.625000 1.000000
vt 0.625000 0.250000
vt 0.125000 0.750000
vt 0.875000 0.500000
vt 0.375000 1.000000
vt 0.875000 0.750000
vt 0.625000 0.250000
vn -0.7655 0.0000 -0.6434
vn 0.0000 1.0000 0.0000
vn 0.0000 -0.0000 1.0000
vn -1.0000 0.0000 0.0000
vn 0.3289 0.9444 0.0000
vn 0.0000 -1.0000 -0.0000
vn 1.0000 -0.0000 0.0000
vn 0.3289 -0.9444 -0.0000
vn 0.5958 -0.0000 0.8031
vn 0.0000 0.0000 -1.0000
vn -0.6366 0.0000 -0.7712
vn -0.2330 -0.9725 -0.0000
vn -0.2330 0.9725 0.0000
vn 0.9987 0.0000 0.0515
vn 0.0000 -0.6054 0.7959
vn 0.0000 0.6054 0.7959
vn 0.0000 -0.9999 0.0137
vn 0.0000 0.9999 0.0137
vn -0.9987 0.0000 0.0515
vn 0.7655 0.0000 -0.6434
vn 0.0000 -0.7884 -0.6152
vn 0.0000 0.7884 -0.6152
usemtl Material
s off
f 7/1/1 28/2/1 5/3/1
f 3/4/2 8/5/2 4/6/2
f 8/7/3 13/8/3 6/9/3
f 6/9/4 18/10/4 8/7/4
f 3/4/5 12/11/5 11/12/5
f 5/13/6 2/14/6 6/15/6
f 9/16/7 12/11/7 10/17/7
f 1/18/8 10/17/8 2/14/8
f 2/14/9 12/11/9 4/6/9
f 3/4/10 9/16/10 1/18/10
f 15/19/4 13/20/4 14/21/4
f 5/3/11 15/22/11 7/1/11
f 6/15/12 16/23/12 5/13/12
f 8/5/13 15/24/13 14/25/13
f 20/26/14 23/27/14 19/28/14
f 4/6/7 19/28/7 2/14/7
f 2/14/15 17/29/15 6/15/15
f 8/5/16 20/26/16 4/6/16
f 23/27/3 22/30/3 21/31/3
f 19/28/17 21/32/17 17/29/17
f 18/33/18 24/34/18 20/26/18
f 17/35/19 22/30/19 18/10/19
f 26/36/4 32/37/4 28/2/4
f 1/18/20 25/38/20 3/4/20
f 5/13/21 27/39/21 1/18/21
f 3/4/22 26/40/22 7/41/22
f 32/37/10 29/42/10 31/43/10
f 25/38/2 30/44/2 26/40/2
f 28/45/6 31/43/6 27/39/6
f 27/39/7 29/42/7 25/38/7
f 7/1/1 26/36/1 28/2/1
f 3/4/2 7/41/2 8/5/2
f 8/7/3 14/46/3 13/8/3
f 6/9/4 17/35/4 18/10/4
f 3/4/5 4/6/5 12/11/5
f 5/13/6 1/18/6 2/14/6
f 9/16/7 11/12/7 12/11/7
f 1/18/8 9/16/8 10/17/8
f 2/14/9 10/17/9 12/11/9
f 3/4/10 11/12/10 9/16/10
f 15/19/4 16/23/4 13/20/4
f 5/3/11 16/47/11 15/22/11
f 6/15/12 13/20/12 16/23/12
f 8/5/13 7/41/13 15/24/13
f 20/26/14 24/34/14 23/27/14
f 4/6/7 20/26/7 19/28/7
f 2/14/15 19/28/15 17/29/15
f 8/5/16 18/33/16 20/26/16
f 23/27/3 24/34/3 22/30/3
f 19/28/17 23/27/17 21/32/17
f 18/33/18 22/48/18 24/34/18
f 17/35/19 21/31/19 22/30/19
f 26/36/4 30/49/4 32/37/4
f 1/18/20 27/39/20 25/38/20
f 5/13/21 28/45/21 27/39/21
f 3/4/22 25/38/22 26/40/22
f 32/37/10 30/49/10 29/42/10
f 25/38/2 29/42/2 30/44/2
f 28/45/6 32/50/6 31/43/6
f 27/39/7 31/43/7 29/42/7
